P3
9 15
255
255 0 0 255 0 0 255 0 0 0 255 0 0 255 0 0 255 0 0 0 255 0 0 255 0 0 255
255 0 0 255 0 0 255 0 0 0 255 0 0 255 0 0 255 0 0 0 255 0 0 255 0 0 255
255 0 0 255 0 0 255 0 0 0 255 0 0 255 0 0 255 0 0 0 255 0 0 255 0 0 255
255 0 0 255 0 0 255 0 0 0 255 0 0 255 0 0 255 0 0 0 255 0 0 255 0 0 255
255 0 0 255 0 0 255 0 0 0 255 0 0 255 0 0 255 0 0 0 255 0 0 255 0 0 255
255 0 0 255 0 0 255 0 0 0 255 0 0 255 0 0 255 0 0 0 255 0 0 255 0 0 255
255 0 0 255 0 0 255 0 0 0 255 0 0 255 0 0 255 0 0 0 255 0 0 255 0 0 255
255 0 0 255 0 0 255 0 0 0 255 0 0 255 0 0 255 0 0 0 255 0 0 255 0 0 255
255 0 0 255 0 0 255 0 0 0 255 0 0 255 0 0 255 0 0 0 255 0 0 255 0 0 255
255 0 0 255 0 0 255 0 0 0 255 0 0 255 0 0 255 0 0 0 255 0 0 255 0 0 255
255 0 0 255 0 0 255 0 0 0 255 0 0 255 0 0 255 0 0 0 255 0 0 255 0 0 255
255 0 0 255 0 0 255 0 0 0 255 0 0 255 0 0 255 0 0 0 255 0 0 255 0 0 255
255 0 0 255 0 0 255 0 0 0 255 0 0 255 0 0 255 0 0 0 255 0 0 255 0 0 255
255 0 0 255 0 0 255 0 0 0 255 0 0 255 0 0 255 0 0 0 255 0 0 255 0 0 255
255 0 0 255 0 0 255 0 0 0 255 0 0 255 0 0 255 0 0 0 255 0 0 255 0 0 255
